<svg version="1.1" viewBox="0.0 0.0 720.0 720.0" fill="none" stroke="none" stroke-linecap="square" stroke-miterlimit="10" xmlns:xlink="http://www.w3.org/1999/xlink" xmlns="http://www.w3.org/2000/svg"><clipPath id="p.0"><path d="m0 0l720.0 0l0 720.0l-720.0 0l0 -720.0z" clip-rule="nonzero"/></clipPath><g clip-path="url(#p.0)"><path fill="#000000" fill-opacity="0.0" d="m0 0l720.0 0l0 720.0l-720.0 0z" fill-rule="evenodd"/><path fill="#61269e" d="m0 102.78591l0 0c1.3096723E-13 56.767082 161.17749 102.78591 360.0 102.78591c198.82251 0 360.0 -46.01883 360.0 -102.78591l0 510.80612c0 56.76709 -161.17749 102.78589 -360.0 102.78589c-198.82251 0 -360.0 -46.0188 -360.0 -102.78589z" fill-rule="evenodd"/><path fill="#a07cc4" d="m0 102.78591l0 0c-8.731149E-14 -56.767094 161.17749 -102.78591 360.0 -102.78591c198.82251 -6.5483616E-14 360.0 46.018818 360.0 102.78591l0 0c0 56.767082 -161.17749 102.78591 -360.0 102.78591c-198.82251 0 -360.0 -46.01883 -360.0 -102.78591z" fill-rule="evenodd"/><path fill="#000000" fill-opacity="0.0" d="m720.0 102.78591l0 0c0 56.767082 -161.17749 102.78591 -360.0 102.78591c-198.82251 0 -360.0 -46.01883 -360.0 -102.78591l0 0c-8.731149E-14 -56.767094 161.17749 -102.78591 360.0 -102.78591c198.82251 -6.5483616E-14 360.0 46.018818 360.0 102.78591l0 510.80612c0 56.76709 -161.17749 102.78589 -360.0 102.78589c-198.82251 0 -360.0 -46.0188 -360.0 -102.78589l0 -510.80612" fill-rule="evenodd"/></g></svg>