<svg version="1.1" viewBox="0.0 0.0 1000.0 225.0" fill="none" stroke="none" stroke-linecap="square" stroke-miterlimit="10" xmlns:xlink="http://www.w3.org/1999/xlink" xmlns="http://www.w3.org/2000/svg"><clipPath id="p.0"><path d="m0 0l1000.0 0l0 225.0l-1000.0 0l0 -225.0z" clip-rule="nonzero"/></clipPath><g clip-path="url(#p.0)"><path fill="#000000" fill-opacity="0.0" d="m0 0l1000.0 0l0 225.0l-1000.0 0z" fill-rule="evenodd"/><path fill="#000000" fill-opacity="0.0" d="m132.01999 162.014l0 0c0 -24.674728 20.002823 -44.67756 44.677567 -44.67756l0 0c11.849228 0 23.213135 4.7070847 31.591812 13.085747c8.378662 8.378677 13.085754 19.742584 13.085754 31.591812l0 0c0 24.674744 -20.002823 44.67758 -44.677567 44.67758l0 0c-24.674744 0 -44.677567 -20.002838 -44.677567 -44.67758z" fill-rule="evenodd"/><path stroke="#ffffff" stroke-width="24.0" stroke-linejoin="round" stroke-linecap="butt" d="m132.01999 162.014l0 0c0 -24.674728 20.002823 -44.67756 44.677567 -44.67756l0 0c11.849228 0 23.213135 4.7070847 31.591812 13.085747c8.378662 8.378677 13.085754 19.742584 13.085754 31.591812l0 0c0 24.674744 -20.002823 44.67758 -44.677567 44.67758l0 0c-24.674744 0 -44.677567 -20.002838 -44.677567 -44.67758z" fill-rule="evenodd"/><path fill="#000000" fill-opacity="0.0" d="m778.55896 162.014l0 0c0 -24.674728 20.002869 -44.67756 44.67755 -44.67756l0 0c11.849243 0 23.213196 4.7070847 31.591858 13.085747c8.378662 8.378677 13.085754 19.742584 13.085754 31.591812l0 0c0 24.674744 -20.002869 44.67758 -44.677612 44.67758l0 0c-24.674683 0 -44.67755 -20.002838 -44.67755 -44.67758z" fill-rule="evenodd"/><path stroke="#ffffff" stroke-width="24.0" stroke-linejoin="round" stroke-linecap="butt" d="m778.55896 162.014l0 0c0 -24.674728 20.002869 -44.67756 44.67755 -44.67756l0 0c11.849243 0 23.213196 4.7070847 31.591858 13.085747c8.378662 8.378677 13.085754 19.742584 13.085754 31.591812l0 0c0 24.674744 -20.002869 44.67758 -44.677612 44.67758l0 0c-24.674683 0 -44.67755 -20.002838 -44.67755 -44.67758z" fill-rule="evenodd"/><path fill="#ffffff" d="m466.84894 104.59682l4.78244 -94.86037l-45.607056 92.80216z" fill-rule="evenodd"/><path stroke="#ffffff" stroke-width="4.0" stroke-linejoin="round" stroke-linecap="butt" d="m466.84894 104.59682l4.78244 -94.86037l-45.607056 92.80216z" fill-rule="evenodd"/><path fill="#ffffff" d="m466.84894 104.59682l4.78244 -94.86037l522.5083 121.44408z" fill-rule="evenodd"/><path stroke="#ffffff" stroke-width="4.0" stroke-linejoin="round" stroke-linecap="butt" d="m466.84894 104.59682l4.78244 -94.86037l522.5083 121.44408z" fill-rule="evenodd"/><path fill="#ffffff" d="m533.14984 107.96138l-4.7824707 94.86037l45.607056 -92.80217z" fill-rule="evenodd"/><path stroke="#ffffff" stroke-width="4.0" stroke-linejoin="round" stroke-linecap="butt" d="m533.14984 107.96138l-4.7824707 94.86037l45.607056 -92.80217z" fill-rule="evenodd"/><path fill="#ffffff" d="m533.14984 107.96138l-4.7824707 94.86037l-522.50836 -121.44408z" fill-rule="evenodd"/><path stroke="#ffffff" stroke-width="4.0" stroke-linejoin="round" stroke-linecap="butt" d="m533.14984 107.96138l-4.7824707 94.86037l-522.50836 -121.44408z" fill-rule="evenodd"/></g></svg>