<svg version="1.1" viewBox="0.0 0.0 1024.0 250.0" fill="none" stroke="none" stroke-linecap="square" stroke-miterlimit="10" xmlns:xlink="http://www.w3.org/1999/xlink" xmlns="http://www.w3.org/2000/svg"><clipPath id="p.0"><path d="m0 0l1024.0 0l0 250.0l-1024.0 0l0 -250.0z" clip-rule="nonzero"/></clipPath><g clip-path="url(#p.0)"><path fill="#000000" fill-opacity="0.0" d="m0 0l1024.0 0l0 250.0l-1024.0 0z" fill-rule="evenodd"/><path fill="#000000" fill-opacity="0.0" d="m144.01999 180.73448l0 0c0 -24.674728 20.002823 -44.677567 44.677567 -44.677567l0 0c11.849228 0 23.213135 4.7070923 31.591812 13.085754c8.378662 8.378677 13.085754 19.742584 13.085754 31.591812l0 0c0 24.674744 -20.002823 44.677567 -44.677567 44.677567l0 0c-24.674744 0 -44.677567 -20.002823 -44.677567 -44.677567z" fill-rule="evenodd"/><path stroke="#ffffff" stroke-width="12.0" stroke-linejoin="round" stroke-linecap="butt" d="m144.01999 180.73448l0 0c0 -24.674728 20.002823 -44.677567 44.677567 -44.677567l0 0c11.849228 0 23.213135 4.7070923 31.591812 13.085754c8.378662 8.378677 13.085754 19.742584 13.085754 31.591812l0 0c0 24.674744 -20.002823 44.677567 -44.677567 44.677567l0 0c-24.674744 0 -44.677567 -20.002823 -44.677567 -44.677567z" fill-rule="evenodd"/><path fill="#000000" fill-opacity="0.0" d="m790.55896 180.73448l0 0c0 -24.674728 20.002869 -44.677567 44.67755 -44.677567l0 0c11.849243 0 23.213196 4.7070923 31.591858 13.085754c8.378662 8.378677 13.085754 19.742584 13.085754 31.591812l0 0c0 24.674744 -20.002869 44.677567 -44.677612 44.677567l0 0c-24.674683 0 -44.67755 -20.002823 -44.67755 -44.677567z" fill-rule="evenodd"/><path stroke="#ffffff" stroke-width="12.0" stroke-linejoin="round" stroke-linecap="butt" d="m790.55896 180.73448l0 0c0 -24.674728 20.002869 -44.677567 44.67755 -44.677567l0 0c11.849243 0 23.213196 4.7070923 31.591858 13.085754c8.378662 8.378677 13.085754 19.742584 13.085754 31.591812l0 0c0 24.674744 -20.002869 44.677567 -44.677612 44.677567l0 0c-24.674683 0 -44.67755 -20.002823 -44.67755 -44.677567z" fill-rule="evenodd"/><path fill="#ffffff" d="m478.84894 123.31728l4.78244 -94.86036l-45.607056 92.80216z" fill-rule="evenodd"/><path stroke="#ffffff" stroke-width="2.0" stroke-linejoin="round" stroke-linecap="butt" d="m478.84894 123.31728l4.78244 -94.86036l-45.607056 92.80216z" fill-rule="evenodd"/><path fill="#ffffff" d="m478.84894 123.31728l4.78244 -94.86036l522.5083 121.44408z" fill-rule="evenodd"/><path stroke="#ffffff" stroke-width="2.0" stroke-linejoin="round" stroke-linecap="butt" d="m478.84894 123.31728l4.78244 -94.86036l522.5083 121.44408z" fill-rule="evenodd"/><path fill="#ffffff" d="m545.14984 126.681854l-4.7824707 94.86037l45.607056 -92.80217z" fill-rule="evenodd"/><path stroke="#ffffff" stroke-width="2.0" stroke-linejoin="round" stroke-linecap="butt" d="m545.14984 126.681854l-4.7824707 94.86037l45.607056 -92.80217z" fill-rule="evenodd"/><path fill="#ffffff" d="m545.14984 126.681854l-4.7824707 94.86037l-522.50836 -121.44408z" fill-rule="evenodd"/><path stroke="#ffffff" stroke-width="2.0" stroke-linejoin="round" stroke-linecap="butt" d="m545.14984 126.681854l-4.7824707 94.86037l-522.50836 -121.44408z" fill-rule="evenodd"/></g></svg>