<svg version="1.1" viewBox="0.0 0.0 720.0 720.0" fill="none" stroke="none" stroke-linecap="square" stroke-miterlimit="10" xmlns:xlink="http://www.w3.org/1999/xlink" xmlns="http://www.w3.org/2000/svg"><clipPath id="p.0"><path d="m0 0l720.0 0l0 720.0l-720.0 0l0 -720.0z" clip-rule="nonzero"/></clipPath><g clip-path="url(#p.0)"><path fill="#000000" fill-opacity="0.0" d="m0 0l720.0 0l0 720.0l-720.0 0z" fill-rule="evenodd"/><path fill="#ffffff" d="m209.9896 5.160613l0 0c0 -2.8507562 2.3109894 -5.161751 5.161743 -5.161751l20.646393 0l0 0c1.3689728 0 2.6818848 0.54382575 3.6499023 1.5118417c0.9680176 0.968016 1.5118408 2.2809277 1.5118408 3.649909l0 96.31822c0 2.8507614 -2.3109894 5.161751 -5.161743 5.161751l-20.646393 0c-2.8507538 0 -5.161743 -2.3109894 -5.161743 -5.161751z" fill-rule="evenodd"/><path fill="#ffffff" d="m277.2494 5.160613l0 0c0 -2.8507562 2.3109741 -5.161751 5.161743 -5.161751l20.646393 0l0 0c1.3689575 0 2.6818848 0.54382575 3.6499023 1.5118417c0.9680176 0.968016 1.5118408 2.2809277 1.5118408 3.649909l0 96.31822c0 2.8507614 -2.3110046 5.161751 -5.161743 5.161751l-20.646393 0c-2.850769 0 -5.161743 -2.3109894 -5.161743 -5.161751z" fill-rule="evenodd"/><path fill="#ffffff" d="m344.5092 5.160613l0 0c0 -2.8507562 2.3109741 -5.161751 5.161743 -5.161751l20.646362 0l0 0c1.368988 0 2.6819153 0.54382575 3.6499329 1.5118417c0.9680176 0.968016 1.5118408 2.2809277 1.5118408 3.649909l0 96.31822c0 2.8507614 -2.3110046 5.161751 -5.1617737 5.161751l-20.646362 0c-2.850769 0 -5.161743 -2.3109894 -5.161743 -5.161751z" fill-rule="evenodd"/><path fill="#ffffff" d="m411.76895 5.160613l0 0c0 -2.8507562 2.3110046 -5.161751 5.1617737 -5.161751l20.646362 0l0 0c1.368988 0 2.6819153 0.54382575 3.6499329 1.5118417c0.96798706 0.968016 1.5118408 2.2809277 1.5118408 3.649909l0 96.31822c0 2.8507614 -2.3110046 5.161751 -5.1617737 5.161751l-20.646362 0c-2.850769 0 -5.1617737 -2.3109894 -5.1617737 -5.161751z" fill-rule="evenodd"/><path fill="#ffffff" d="m479.02875 5.160613l0 0c0 -2.8507562 2.3110046 -5.161751 5.161743 -5.161751l20.646393 0l0 0c1.368988 0 2.6818848 0.54382575 3.6499023 1.5118417c0.9680176 0.968016 1.5118408 2.2809277 1.5118408 3.649909l0 96.31822c0 2.8507614 -2.3109741 5.161751 -5.161743 5.161751l-20.646393 0c-2.8507385 0 -5.161743 -2.3109894 -5.161743 -5.161751z" fill-rule="evenodd"/><path fill="#ffffff" d="m93.6291 103.64468l0 0c0 -4.9608307 4.021553 -8.982384 8.982384 -8.982384l514.76807 0c2.3822632 0 4.666992 0.9463577 6.3515015 2.6308823c1.6845703 1.6845245 2.6309204 3.969223 2.6309204 6.3515015l0 35.928444c0 4.9608307 -4.0215454 8.982391 -8.982422 8.982391l-514.76807 0l0 0c-4.9608307 0 -8.982384 -4.0215607 -8.982384 -8.982391z" fill-rule="evenodd"/><path fill="#ffffff" d="m93.6291 580.4374l0 0c0 -4.9608154 4.021553 -8.982361 8.982384 -8.982361l514.76807 0c2.3822632 0 4.666992 0.9463501 6.3515015 2.6308594c1.6845703 1.6845093 2.6309204 3.9692383 2.6309204 6.3515015l0 35.928467c0 4.9608154 -4.0215454 8.982361 -8.982422 8.982361l-514.76807 0l0 0c-4.9608307 0 -8.982384 -4.0215454 -8.982384 -8.982361z" fill-rule="evenodd"/><path fill="#ffffff" d="m102.61148 620.5849l0 0c-4.9608307 0 -8.982384 -4.0215454 -8.982384 -8.982361l0 -505.6026c0 -2.3822708 0.9463577 -4.666977 2.6308823 -6.3515015c1.6845245 -1.6845245 3.9692307 -2.6308746 6.3515015 -2.6308746l35.92845 0c4.9608307 0 8.982376 4.0215454 8.982376 8.982376l0 505.6026c0 4.9608154 -4.0215454 8.982361 -8.982376 8.982361z" fill-rule="evenodd"/><path fill="#ffffff" d="m617.3935 98.93954l0 0c4.9608154 0 8.982361 4.0215454 8.982361 8.982376l0 505.8359c0 2.3822632 -0.9463501 4.666992 -2.6308594 6.3515015c-1.6845093 1.6845093 -3.9692383 2.6308594 -6.3515015 2.6308594l-35.928467 0c-4.9608154 0 -8.982361 -4.0215454 -8.982361 -8.982361l0 -505.8359l0 0c0 -4.9608307 4.0215454 -8.982376 8.982361 -8.982376z" fill-rule="evenodd"/><path fill="#ffffff" d="m195.5106 201.69919l0 0c0 -3.0631409 2.4831696 -5.546295 5.546295 -5.546295l317.8506 0c1.4710083 0 2.8817139 0.5843353 3.921814 1.624466c1.0401611 1.0401306 1.6245117 2.4508514 1.6245117 3.9218292l0 22.18451c0 3.0631256 -2.4831543 5.546295 -5.5463257 5.546295l-317.8506 0l0 0c-3.0631256 0 -5.546295 -2.4831696 -5.546295 -5.546295z" fill-rule="evenodd"/><path fill="#ffffff" d="m195.5106 496.10132l0 0c0 -3.0631104 2.4831696 -5.546295 5.546295 -5.546295l317.8506 0c1.4710083 0 2.8817139 0.5843506 3.921814 1.6244812c1.0401611 1.0401306 1.6245117 2.4508667 1.6245117 3.921814l0 22.18451c0 3.0631714 -2.4831543 5.5463257 -5.5463257 5.5463257l-317.8506 0l0 0c-3.0631256 0 -5.546295 -2.4831543 -5.546295 -5.5463257z" fill-rule="evenodd"/><path fill="#ffffff" d="m201.0569 520.891l0 0c-3.0631256 0 -5.546295 -2.4831543 -5.546295 -5.5463257l0 -312.1912c0 -1.4709625 0.5843506 -2.8816986 1.6244812 -3.9218292c1.0401306 -1.0401306 2.4508514 -1.624466 3.921814 -1.624466l22.18451 0c3.0631409 0 5.546295 2.4831543 5.546295 5.546295l0 312.1912c0 3.0631714 -2.4831543 5.5463257 -5.546295 5.5463257z" fill-rule="evenodd"/><path fill="#ffffff" d="m518.9161 198.79393l0 0c3.0631104 0 5.5462646 2.4831543 5.5462646 5.546295l0 312.33527c0 1.4710083 -0.5843506 2.8817139 -1.6244507 3.921814c-1.0401611 1.0401611 -2.4508667 1.6245117 -3.921814 1.6245117l-22.18451 0c-3.0631409 0 -5.546295 -2.4831543 -5.546295 -5.5463257l0 -312.33527c0 -3.0631409 2.4831543 -5.546295 5.546295 -5.546295z" fill-rule="evenodd"/><path fill="#ffffff" d="m714.84143 209.99266l0 0c2.850769 0 5.161804 2.3109894 5.161804 5.161743l0 20.646393l0 0c0 1.3689728 -0.54382324 2.6818848 -1.5118408 3.6499023c-0.9680176 0.9680176 -2.2809448 1.5118408 -3.6499634 1.5118408l-96.31818 0c-2.850769 0 -5.161743 -2.3109894 -5.161743 -5.161743l0 -20.646393c0 -2.8507538 2.3109741 -5.161743 5.161743 -5.161743z" fill-rule="evenodd"/><path fill="#ffffff" d="m714.84143 277.25244l0 0c2.850769 0 5.161804 2.3110046 5.161804 5.161743l0 20.646393l0 0c0 1.368988 -0.54382324 2.6818848 -1.5118408 3.6499023c-0.9680176 0.9680176 -2.2809448 1.5118408 -3.6499634 1.5118408l-96.31818 0c-2.850769 0 -5.161743 -2.3109741 -5.161743 -5.161743l0 -20.646393c0 -2.8507385 2.3109741 -5.161743 5.161743 -5.161743z" fill-rule="evenodd"/><path fill="#ffffff" d="m714.84143 344.51224l0 0c2.850769 0 5.161804 2.3110046 5.161804 5.161743l0 20.646393l0 0c0 1.368988 -0.54382324 2.6818848 -1.5118408 3.6499023c-0.9680176 0.9680176 -2.2809448 1.5118408 -3.6499634 1.5118408l-96.31818 0c-2.850769 0 -5.161743 -2.3109741 -5.161743 -5.161743l0 -20.646393c0 -2.8507385 2.3109741 -5.161743 5.161743 -5.161743z" fill-rule="evenodd"/><path fill="#ffffff" d="m714.84143 411.77203l0 0c2.850769 0 5.161804 2.3110046 5.161804 5.161743l0 20.646393l0 0c0 1.368988 -0.54382324 2.6818848 -1.5118408 3.6499023c-0.9680176 0.9680176 -2.2809448 1.5118408 -3.6499634 1.5118408l-96.31818 0c-2.850769 0 -5.161743 -2.3110046 -5.161743 -5.161743l0 -20.646393c0 -2.8507385 2.3109741 -5.161743 5.161743 -5.161743z" fill-rule="evenodd"/><path fill="#ffffff" d="m714.84143 479.03183l0 0c2.850769 0 5.161804 2.3109741 5.161804 5.161743l0 20.646393l0 0c0 1.3689575 -0.54382324 2.6818848 -1.5118408 3.6499023c-0.9680176 0.9680176 -2.2809448 1.5118408 -3.6499634 1.5118408l-96.31818 0c-2.850769 0 -5.161743 -2.3110046 -5.161743 -5.161743l0 -20.646393c0 -2.850769 2.3109741 -5.161743 5.161743 -5.161743z" fill-rule="evenodd"/><path fill="#ffffff" d="m209.9896 618.5177l0 0c0 -2.850769 2.3109894 -5.161743 5.161743 -5.161743l20.646393 0l0 0c1.3689728 0 2.6818848 0.54382324 3.6499023 1.5118408c0.9680176 0.9680176 1.5118408 2.2808838 1.5118408 3.6499023l0 96.31818c0 2.850769 -2.3109894 5.161804 -5.161743 5.161804l-20.646393 0c-2.8507538 0 -5.161743 -2.3110352 -5.161743 -5.161804z" fill-rule="evenodd"/><path fill="#ffffff" d="m277.2494 618.5177l0 0c0 -2.850769 2.3109741 -5.161743 5.161743 -5.161743l20.646393 0l0 0c1.3689575 0 2.6818848 0.54382324 3.6499023 1.5118408c0.9680176 0.9680176 1.5118408 2.2808838 1.5118408 3.6499023l0 96.31818c0 2.850769 -2.3110046 5.161804 -5.161743 5.161804l-20.646393 0c-2.850769 0 -5.161743 -2.3110352 -5.161743 -5.161804z" fill-rule="evenodd"/><path fill="#ffffff" d="m344.5092 618.5177l0 0c0 -2.850769 2.3109741 -5.161743 5.161743 -5.161743l20.646362 0l0 0c1.368988 0 2.6819153 0.54382324 3.6499329 1.5118408c0.9680176 0.9680176 1.5118408 2.2808838 1.5118408 3.6499023l0 96.31818c0 2.850769 -2.3110046 5.161804 -5.1617737 5.161804l-20.646362 0c-2.850769 0 -5.161743 -2.3110352 -5.161743 -5.161804z" fill-rule="evenodd"/><path fill="#ffffff" d="m411.76895 618.5177l0 0c0 -2.850769 2.3110046 -5.161743 5.1617737 -5.161743l20.646362 0l0 0c1.368988 0 2.6819153 0.54382324 3.6499329 1.5118408c0.96798706 0.9680176 1.5118408 2.2808838 1.5118408 3.6499023l0 96.31818c0 2.850769 -2.3110046 5.161804 -5.1617737 5.161804l-20.646362 0c-2.850769 0 -5.1617737 -2.3110352 -5.1617737 -5.161804z" fill-rule="evenodd"/><path fill="#ffffff" d="m479.02875 618.5177l0 0c0 -2.850769 2.3110046 -5.161743 5.161743 -5.161743l20.646393 0l0 0c1.368988 0 2.6818848 0.54382324 3.6499023 1.5118408c0.9680176 0.9680176 1.5118408 2.2808838 1.5118408 3.6499023l0 96.31818c0 2.850769 -2.3109741 5.161804 -5.161743 5.161804l-20.646393 0c-2.8507385 0 -5.161743 -2.3110352 -5.161743 -5.161804z" fill-rule="evenodd"/><path fill="#ffffff" d="m101.48686 209.99683l0 0c2.8507538 0 5.161751 2.3109894 5.161751 5.161743l0 20.646393l0 0c0 1.3689728 -0.5438309 2.6818848 -1.5118408 3.6499023c-0.9680176 0.9680176 -2.2809296 1.5118408 -3.64991 1.5118408l-96.31823 0c-2.8507562 0 -5.1617503 -2.3109894 -5.1617503 -5.161743l0 -20.646393c0 -2.8507538 2.3109944 -5.161743 5.1617503 -5.161743z" fill-rule="evenodd"/><path fill="#ffffff" d="m101.48686 277.25662l0 0c2.8507538 0 5.161751 2.3109741 5.161751 5.161743l0 20.646393l0 0c0 1.3689575 -0.5438309 2.6818848 -1.5118408 3.6499023c-0.9680176 0.9680176 -2.2809296 1.5118408 -3.64991 1.5118408l-96.31823 0c-2.8507562 0 -5.1617503 -2.3110046 -5.1617503 -5.161743l0 -20.646393c0 -2.850769 2.3109944 -5.161743 5.1617503 -5.161743z" fill-rule="evenodd"/><path fill="#ffffff" d="m101.48686 344.51642l0 0c2.8507538 0 5.161751 2.3109741 5.161751 5.161743l0 20.646362l0 0c0 1.368988 -0.5438309 2.6819153 -1.5118408 3.6499329c-0.9680176 0.9680176 -2.2809296 1.5118408 -3.64991 1.5118408l-96.31823 0c-2.8507562 0 -5.1617503 -2.3110046 -5.1617503 -5.1617737l0 -20.646362c0 -2.850769 2.3109944 -5.161743 5.1617503 -5.161743z" fill-rule="evenodd"/><path fill="#ffffff" d="m101.48686 411.77618l0 0c2.8507538 0 5.161751 2.3110046 5.161751 5.1617737l0 20.646362l0 0c0 1.368988 -0.5438309 2.6819153 -1.5118408 3.6499329c-0.9680176 0.96798706 -2.2809296 1.5118408 -3.64991 1.5118408l-96.31823 0c-2.8507562 0 -5.1617503 -2.3110046 -5.1617503 -5.1617737l0 -20.646362c0 -2.850769 2.3109944 -5.1617737 5.1617503 -5.1617737z" fill-rule="evenodd"/><path fill="#ffffff" d="m101.48686 479.03598l0 0c2.8507538 0 5.161751 2.3110046 5.161751 5.161743l0 20.646393l0 0c0 1.368988 -0.5438309 2.6818848 -1.5118408 3.6499023c-0.9680176 0.9680176 -2.2809296 1.5118408 -3.64991 1.5118408l-96.31823 0c-2.8507562 0 -5.1617503 -2.3109741 -5.1617503 -5.161743l0 -20.646393c0 -2.8507385 2.3109944 -5.161743 5.1617503 -5.161743z" fill-rule="evenodd"/></g></svg>