<svg version="1.1" viewBox="0.0 0.0 720.0 720.0" fill="none" stroke="none" stroke-linecap="square" stroke-miterlimit="10" xmlns:xlink="http://www.w3.org/1999/xlink" xmlns="http://www.w3.org/2000/svg"><clipPath id="p.0"><path d="m0 0l720.0 0l0 720.0l-720.0 0l0 -720.0z" clip-rule="nonzero"/></clipPath><g clip-path="url(#p.0)"><path fill="#000000" fill-opacity="0.0" d="m0 0l720.0 0l0 720.0l-720.0 0z" fill-rule="evenodd"/><path fill="#000000" fill-opacity="0.0" d="m16.96063 360.0l0 0c0 -189.45541 153.58395 -343.03937 343.03937 -343.03937l0 0c90.979706 0 178.2331 36.14154 242.56549 100.4739c64.33234 64.33236 100.47388 151.58575 100.47388 242.56546l0 0c0 189.45538 -153.58398 343.03937 -343.03937 343.03937l0 0c-189.45541 0 -343.03937 -153.58398 -343.03937 -343.03937z" fill-rule="evenodd"/><path stroke="#523e8e" stroke-width="24.0" stroke-linejoin="round" stroke-linecap="butt" d="m16.96063 360.0l0 0c0 -189.45541 153.58395 -343.03937 343.03937 -343.03937l0 0c90.979706 0 178.2331 36.14154 242.56549 100.4739c64.33234 64.33236 100.47388 151.58575 100.47388 242.56546l0 0c0 189.45538 -153.58398 343.03937 -343.03937 343.03937l0 0c-189.45541 0 -343.03937 -153.58398 -343.03937 -343.03937z" fill-rule="evenodd"/><path fill="#523e8e" d="m51.29134 360.0l0 0c0 -170.49509 138.21358 -308.70865 308.70865 -308.70865l0 0c81.87463 0 160.39587 32.52457 218.28998 90.41867c57.894104 57.894104 90.4187 136.41536 90.4187 218.29l0 0c0 170.49506 -138.21362 308.70868 -308.70868 308.70868l0 0c-170.49509 0 -308.70865 -138.21362 -308.70865 -308.70868z" fill-rule="evenodd"/><path fill="#ffffff" d="m302.09186 268.3938l0 0c0 -2.8354187 2.2985535 -5.1339417 5.133972 -5.1339417l20.535217 0l0 0c1.3616028 0 2.66745 0.54089355 3.630249 1.5036926c0.9628296 0.9627991 1.5037231 2.2686462 1.5037231 3.630249l0 183.2124c0 2.8354187 -2.2985535 5.1339417 -5.133972 5.1339417l-20.535217 0c-2.8354187 0 -5.133972 -2.298523 -5.133972 -5.1339417z" fill-rule="evenodd"/><path fill="#ffffff" d="m412.77417 263.25986l0 0c2.8354187 0 5.133972 2.298523 5.133972 5.1339417l0 20.535217l0 0c0 1.3616333 -0.54089355 2.6674805 -1.5037231 3.6302795c-0.9627991 0.9627991 -2.2686462 1.5036926 -3.630249 1.5036926l-91.18088 0c-2.8354187 0 -5.133972 -2.2985535 -5.133972 -5.133972l0 -20.535217c0 -2.8354187 2.2985535 -5.1339417 5.133972 -5.1339417z" fill-rule="evenodd"/><path fill="#ffffff" d="m412.77417 344.59842l0 0c2.8354187 0 5.133972 2.2985535 5.133972 5.133972l0 20.535217l0 0c0 1.3616028 -0.54089355 2.66745 -1.5037231 3.630249c-0.9627991 0.9628296 -2.2686462 1.5037231 -3.630249 1.5037231l-91.18088 0c-2.8354187 0 -5.133972 -2.2985535 -5.133972 -5.133972l0 -20.535217c0 -2.8354187 2.2985535 -5.133972 5.133972 -5.133972z" fill-rule="evenodd"/><path fill="#ffffff" d="m412.77417 425.937l0 0c2.8354187 0 5.133972 2.2985535 5.133972 5.133972l0 20.535217l0 0c0 1.3616028 -0.54089355 2.66745 -1.5037231 3.630249c-0.9627991 0.9627991 -2.2686462 1.5036926 -3.630249 1.5036926l-91.18088 0c-2.8354187 0 -5.133972 -2.298523 -5.133972 -5.1339417l0 -20.535217c0 -2.8354187 2.2985535 -5.133972 5.133972 -5.133972z" fill-rule="evenodd"/></g></svg>