<svg version="1.1" viewBox="0.0 0.0 720.0 720.0" fill="none" stroke="none" stroke-linecap="square" stroke-miterlimit="10" xmlns:xlink="http://www.w3.org/1999/xlink" xmlns="http://www.w3.org/2000/svg"><clipPath id="p.0"><path d="m0 0l720.0 0l0 720.0l-720.0 0l0 -720.0z" clip-rule="nonzero"/></clipPath><g clip-path="url(#p.0)"><path fill="#000000" fill-opacity="0.0" d="m0 0l720.0 0l0 720.0l-720.0 0z" fill-rule="evenodd"/><path fill="#523e8e" d="m209.9896 5.160613l0 0c0 -2.8507562 2.3109894 -5.161751 5.161743 -5.161751l20.646393 0l0 0c1.3689728 0 2.6818848 0.54382575 3.6499023 1.5118417c0.9680176 0.968016 1.5118408 2.2809277 1.5118408 3.649909l0 96.31822c0 2.8507614 -2.3109894 5.161751 -5.161743 5.161751l-20.646393 0c-2.8507538 0 -5.161743 -2.3109894 -5.161743 -5.161751z" fill-rule="evenodd"/><path fill="#523e8e" d="m277.2494 5.160613l0 0c0 -2.8507562 2.3109741 -5.161751 5.161743 -5.161751l20.646393 0l0 0c1.3689575 0 2.6818848 0.54382575 3.6499023 1.5118417c0.9680176 0.968016 1.5118408 2.2809277 1.5118408 3.649909l0 96.31822c0 2.8507614 -2.3110046 5.161751 -5.161743 5.161751l-20.646393 0c-2.850769 0 -5.161743 -2.3109894 -5.161743 -5.161751z" fill-rule="evenodd"/><path fill="#523e8e" d="m344.5092 5.160613l0 0c0 -2.8507562 2.3109741 -5.161751 5.161743 -5.161751l20.646362 0l0 0c1.368988 0 2.6819153 0.54382575 3.6499329 1.5118417c0.9680176 0.968016 1.5118408 2.2809277 1.5118408 3.649909l0 96.31822c0 2.8507614 -2.3110046 5.161751 -5.1617737 5.161751l-20.646362 0c-2.850769 0 -5.161743 -2.3109894 -5.161743 -5.161751z" fill-rule="evenodd"/><path fill="#523e8e" d="m411.76895 5.160613l0 0c0 -2.8507562 2.3110046 -5.161751 5.1617737 -5.161751l20.646362 0l0 0c1.368988 0 2.6819153 0.54382575 3.6499329 1.5118417c0.96798706 0.968016 1.5118408 2.2809277 1.5118408 3.649909l0 96.31822c0 2.8507614 -2.3110046 5.161751 -5.1617737 5.161751l-20.646362 0c-2.850769 0 -5.1617737 -2.3109894 -5.1617737 -5.161751z" fill-rule="evenodd"/><path fill="#523e8e" d="m479.02875 5.160613l0 0c0 -2.8507562 2.3110046 -5.161751 5.161743 -5.161751l20.646393 0l0 0c1.368988 0 2.6818848 0.54382575 3.6499023 1.5118417c0.9680176 0.968016 1.5118408 2.2809277 1.5118408 3.649909l0 96.31822c0 2.8507614 -2.3109741 5.161751 -5.161743 5.161751l-20.646393 0c-2.8507385 0 -5.161743 -2.3109894 -5.161743 -5.161751z" fill-rule="evenodd"/><path fill="#523e8e" d="m93.6291 103.64468l0 0c0 -4.9608307 4.021553 -8.982384 8.982384 -8.982384l514.76807 0c2.3822632 0 4.666992 0.9463577 6.3515015 2.6308823c1.6845703 1.6845245 2.6309204 3.969223 2.6309204 6.3515015l0 35.928444c0 4.9608307 -4.0215454 8.982391 -8.982422 8.982391l-514.76807 0l0 0c-4.9608307 0 -8.982384 -4.0215607 -8.982384 -8.982391z" fill-rule="evenodd"/><path fill="#523e8e" d="m93.6291 580.4374l0 0c0 -4.9608154 4.021553 -8.982361 8.982384 -8.982361l514.76807 0c2.3822632 0 4.666992 0.9463501 6.3515015 2.6308594c1.6845703 1.6845093 2.6309204 3.9692383 2.6309204 6.3515015l0 35.928467c0 4.9608154 -4.0215454 8.982361 -8.982422 8.982361l-514.76807 0l0 0c-4.9608307 0 -8.982384 -4.0215454 -8.982384 -8.982361z" fill-rule="evenodd"/><path fill="#523e8e" d="m102.61148 620.5849l0 0c-4.9608307 0 -8.982384 -4.0215454 -8.982384 -8.982361l0 -505.6026c0 -2.3822708 0.9463577 -4.666977 2.6308823 -6.3515015c1.6845245 -1.6845245 3.9692307 -2.6308746 6.3515015 -2.6308746l35.92845 0c4.9608307 0 8.982376 4.0215454 8.982376 8.982376l0 505.6026c0 4.9608154 -4.0215454 8.982361 -8.982376 8.982361z" fill-rule="evenodd"/><path fill="#523e8e" d="m617.3935 98.93954l0 0c4.9608154 0 8.982361 4.0215454 8.982361 8.982376l0 505.8359c0 2.3822632 -0.9463501 4.666992 -2.6308594 6.3515015c-1.6845093 1.6845093 -3.9692383 2.6308594 -6.3515015 2.6308594l-35.928467 0c-4.9608154 0 -8.982361 -4.0215454 -8.982361 -8.982361l0 -505.8359l0 0c0 -4.9608307 4.0215454 -8.982376 8.982361 -8.982376z" fill-rule="evenodd"/><path fill="#523e8e" d="m185.93564 192.48221l0 0c0 -3.2412872 2.6275787 -5.8688507 5.8688507 -5.8688507l336.33588 0c1.5565186 0 3.0493164 0.61831665 4.1499634 1.7189484c1.1005859 1.1006165 1.7189331 2.5933838 1.7189331 4.1499023l0 23.4747c0 3.241272 -2.6275635 5.8688507 -5.8688965 5.8688507l-336.33588 0l0 0c-3.241272 0 -5.8688507 -2.6275787 -5.8688507 -5.8688507z" fill-rule="evenodd"/><path fill="#523e8e" d="m185.93564 504.00598l0 0c0 -3.241272 2.6275787 -5.8688354 5.8688507 -5.8688354l336.33588 0c1.5565186 0 3.0493164 0.61831665 4.1499634 1.7189331c1.1005859 1.100647 1.7189331 2.5934143 1.7189331 4.1499023l0 23.474731c0 3.241272 -2.6275635 5.8688354 -5.8688965 5.8688354l-336.33588 0l0 0c-3.241272 0 -5.8688507 -2.6275635 -5.8688507 -5.8688354z" fill-rule="evenodd"/><path fill="#523e8e" d="m191.80449 530.23737l0 0c-3.241272 0 -5.8688507 -2.6276245 -5.8688507 -5.8688965l0 -330.3474c0 -1.5565186 0.61831665 -3.049286 1.7189484 -4.1499023c1.1006165 -1.1006317 2.5933838 -1.7189484 4.1499023 -1.7189484l23.4747 0c3.241272 0 5.8688507 2.6275635 5.8688507 5.8688507l0 330.3474c0 3.241272 -2.6275787 5.8688965 -5.8688507 5.8688965z" fill-rule="evenodd"/><path fill="#523e8e" d="m528.1495 189.40799l0 0c3.241272 0 5.8688354 2.6275787 5.8688354 5.8688507l0 330.49982c0 1.5565186 -0.61828613 3.0493164 -1.7189331 4.1499023c-1.1005859 1.100647 -2.5933838 1.7189941 -4.1499023 1.7189941l-23.4747 0c-3.241272 0 -5.8688354 -2.6276245 -5.8688354 -5.8688965l0 -330.49982l0 0c0 -3.241272 2.6275635 -5.8688507 5.8688354 -5.8688507z" fill-rule="evenodd"/><path fill="#523e8e" d="m714.84143 209.99266l0 0c2.850769 0 5.161804 2.3109894 5.161804 5.161743l0 20.646393l0 0c0 1.3689728 -0.54382324 2.6818848 -1.5118408 3.6499023c-0.9680176 0.9680176 -2.2809448 1.5118408 -3.6499634 1.5118408l-96.31818 0c-2.850769 0 -5.161743 -2.3109894 -5.161743 -5.161743l0 -20.646393c0 -2.8507538 2.3109741 -5.161743 5.161743 -5.161743z" fill-rule="evenodd"/><path fill="#523e8e" d="m714.84143 277.25244l0 0c2.850769 0 5.161804 2.3110046 5.161804 5.161743l0 20.646393l0 0c0 1.368988 -0.54382324 2.6818848 -1.5118408 3.6499023c-0.9680176 0.9680176 -2.2809448 1.5118408 -3.6499634 1.5118408l-96.31818 0c-2.850769 0 -5.161743 -2.3109741 -5.161743 -5.161743l0 -20.646393c0 -2.8507385 2.3109741 -5.161743 5.161743 -5.161743z" fill-rule="evenodd"/><path fill="#523e8e" d="m714.84143 344.51224l0 0c2.850769 0 5.161804 2.3110046 5.161804 5.161743l0 20.646393l0 0c0 1.368988 -0.54382324 2.6818848 -1.5118408 3.6499023c-0.9680176 0.9680176 -2.2809448 1.5118408 -3.6499634 1.5118408l-96.31818 0c-2.850769 0 -5.161743 -2.3109741 -5.161743 -5.161743l0 -20.646393c0 -2.8507385 2.3109741 -5.161743 5.161743 -5.161743z" fill-rule="evenodd"/><path fill="#523e8e" d="m714.84143 411.77203l0 0c2.850769 0 5.161804 2.3110046 5.161804 5.161743l0 20.646393l0 0c0 1.368988 -0.54382324 2.6818848 -1.5118408 3.6499023c-0.9680176 0.9680176 -2.2809448 1.5118408 -3.6499634 1.5118408l-96.31818 0c-2.850769 0 -5.161743 -2.3110046 -5.161743 -5.161743l0 -20.646393c0 -2.8507385 2.3109741 -5.161743 5.161743 -5.161743z" fill-rule="evenodd"/><path fill="#523e8e" d="m714.84143 479.03183l0 0c2.850769 0 5.161804 2.3109741 5.161804 5.161743l0 20.646393l0 0c0 1.3689575 -0.54382324 2.6818848 -1.5118408 3.6499023c-0.9680176 0.9680176 -2.2809448 1.5118408 -3.6499634 1.5118408l-96.31818 0c-2.850769 0 -5.161743 -2.3110046 -5.161743 -5.161743l0 -20.646393c0 -2.850769 2.3109741 -5.161743 5.161743 -5.161743z" fill-rule="evenodd"/><path fill="#523e8e" d="m209.9896 618.5177l0 0c0 -2.850769 2.3109894 -5.161743 5.161743 -5.161743l20.646393 0l0 0c1.3689728 0 2.6818848 0.54382324 3.6499023 1.5118408c0.9680176 0.9680176 1.5118408 2.2808838 1.5118408 3.6499023l0 96.31818c0 2.850769 -2.3109894 5.161804 -5.161743 5.161804l-20.646393 0c-2.8507538 0 -5.161743 -2.3110352 -5.161743 -5.161804z" fill-rule="evenodd"/><path fill="#523e8e" d="m277.2494 618.5177l0 0c0 -2.850769 2.3109741 -5.161743 5.161743 -5.161743l20.646393 0l0 0c1.3689575 0 2.6818848 0.54382324 3.6499023 1.5118408c0.9680176 0.9680176 1.5118408 2.2808838 1.5118408 3.6499023l0 96.31818c0 2.850769 -2.3110046 5.161804 -5.161743 5.161804l-20.646393 0c-2.850769 0 -5.161743 -2.3110352 -5.161743 -5.161804z" fill-rule="evenodd"/><path fill="#523e8e" d="m344.5092 618.5177l0 0c0 -2.850769 2.3109741 -5.161743 5.161743 -5.161743l20.646362 0l0 0c1.368988 0 2.6819153 0.54382324 3.6499329 1.5118408c0.9680176 0.9680176 1.5118408 2.2808838 1.5118408 3.6499023l0 96.31818c0 2.850769 -2.3110046 5.161804 -5.1617737 5.161804l-20.646362 0c-2.850769 0 -5.161743 -2.3110352 -5.161743 -5.161804z" fill-rule="evenodd"/><path fill="#523e8e" d="m411.76895 618.5177l0 0c0 -2.850769 2.3110046 -5.161743 5.1617737 -5.161743l20.646362 0l0 0c1.368988 0 2.6819153 0.54382324 3.6499329 1.5118408c0.96798706 0.9680176 1.5118408 2.2808838 1.5118408 3.6499023l0 96.31818c0 2.850769 -2.3110046 5.161804 -5.1617737 5.161804l-20.646362 0c-2.850769 0 -5.1617737 -2.3110352 -5.1617737 -5.161804z" fill-rule="evenodd"/><path fill="#523e8e" d="m479.02875 618.5177l0 0c0 -2.850769 2.3110046 -5.161743 5.161743 -5.161743l20.646393 0l0 0c1.368988 0 2.6818848 0.54382324 3.6499023 1.5118408c0.9680176 0.9680176 1.5118408 2.2808838 1.5118408 3.6499023l0 96.31818c0 2.850769 -2.3109741 5.161804 -5.161743 5.161804l-20.646393 0c-2.8507385 0 -5.161743 -2.3110352 -5.161743 -5.161804z" fill-rule="evenodd"/><path fill="#523e8e" d="m101.48686 209.99683l0 0c2.8507538 0 5.161751 2.3109894 5.161751 5.161743l0 20.646393l0 0c0 1.3689728 -0.5438309 2.6818848 -1.5118408 3.6499023c-0.9680176 0.9680176 -2.2809296 1.5118408 -3.64991 1.5118408l-96.31823 0c-2.8507562 0 -5.1617503 -2.3109894 -5.1617503 -5.161743l0 -20.646393c0 -2.8507538 2.3109944 -5.161743 5.1617503 -5.161743z" fill-rule="evenodd"/><path fill="#523e8e" d="m101.48686 277.25662l0 0c2.8507538 0 5.161751 2.3109741 5.161751 5.161743l0 20.646393l0 0c0 1.3689575 -0.5438309 2.6818848 -1.5118408 3.6499023c-0.9680176 0.9680176 -2.2809296 1.5118408 -3.64991 1.5118408l-96.31823 0c-2.8507562 0 -5.1617503 -2.3110046 -5.1617503 -5.161743l0 -20.646393c0 -2.850769 2.3109944 -5.161743 5.1617503 -5.161743z" fill-rule="evenodd"/><path fill="#523e8e" d="m101.48686 344.51642l0 0c2.8507538 0 5.161751 2.3109741 5.161751 5.161743l0 20.646362l0 0c0 1.368988 -0.5438309 2.6819153 -1.5118408 3.6499329c-0.9680176 0.9680176 -2.2809296 1.5118408 -3.64991 1.5118408l-96.31823 0c-2.8507562 0 -5.1617503 -2.3110046 -5.1617503 -5.1617737l0 -20.646362c0 -2.850769 2.3109944 -5.161743 5.1617503 -5.161743z" fill-rule="evenodd"/><path fill="#523e8e" d="m101.48686 411.77618l0 0c2.8507538 0 5.161751 2.3110046 5.161751 5.1617737l0 20.646362l0 0c0 1.368988 -0.5438309 2.6819153 -1.5118408 3.6499329c-0.9680176 0.96798706 -2.2809296 1.5118408 -3.64991 1.5118408l-96.31823 0c-2.8507562 0 -5.1617503 -2.3110046 -5.1617503 -5.1617737l0 -20.646362c0 -2.850769 2.3109944 -5.1617737 5.1617503 -5.1617737z" fill-rule="evenodd"/><path fill="#523e8e" d="m101.48686 479.03598l0 0c2.8507538 0 5.161751 2.3110046 5.161751 5.161743l0 20.646393l0 0c0 1.368988 -0.5438309 2.6818848 -1.5118408 3.6499023c-0.9680176 0.9680176 -2.2809296 1.5118408 -3.64991 1.5118408l-96.31823 0c-2.8507562 0 -5.1617503 -2.3109741 -5.1617503 -5.161743l0 -20.646393c0 -2.8507385 2.3109944 -5.161743 5.1617503 -5.161743z" fill-rule="evenodd"/><path fill="#523e8e" d="m253.85564 273.70947l0 0c0 -10.9678955 8.891251 -19.859116 19.859116 -19.859116l172.56525 0c5.266968 0 10.318207 2.0922852 14.042511 5.8166046c3.7243042 3.7243042 5.8165894 8.775543 5.8165894 14.042511l0 172.56522c0 10.9678955 -8.891235 19.85913 -19.8591 19.85913l-172.56525 0c-10.967865 0 -19.859116 -8.891235 -19.859116 -19.85913z" fill-rule="evenodd"/></g></svg>