<svg version="1.1" viewBox="0.0 0.0 720.0 720.0" fill="none" stroke="none" stroke-linecap="square" stroke-miterlimit="10" xmlns:xlink="http://www.w3.org/1999/xlink" xmlns="http://www.w3.org/2000/svg"><clipPath id="p.0"><path d="m0 0l720.0 0l0 720.0l-720.0 0l0 -720.0z" clip-rule="nonzero"/></clipPath><g clip-path="url(#p.0)"><path fill="#000000" fill-opacity="0.0" d="m0 0l720.0 0l0 720.0l-720.0 0z" fill-rule="evenodd"/><path fill="#523e8e" d="m0 37.087357l0 0c0 -20.482782 16.604574 -37.087357 37.087357 -37.087357l645.8253 0c9.836182 0 19.26947 3.9074066 26.224731 10.862635c6.9552 6.955229 10.86261 16.388542 10.86261 26.224722l0 148.34497c0 20.482788 -16.604553 37.087357 -37.08734 37.087357l-645.8253 0c-20.482782 0 -37.087357 -16.604568 -37.087357 -37.087357z" fill-rule="evenodd"/><path fill="#523e8e" d="m0 285.8233l0 0c0 -20.482788 16.604574 -37.087357 37.087357 -37.087357l645.8253 0c9.836182 0 19.26947 3.9073944 26.224731 10.862625c6.9552 6.9552307 10.86261 16.38855 10.86261 26.224731l0 148.34497c0 20.482788 -16.604553 37.08734 -37.08734 37.08734l-645.8253 0c-20.482782 0 -37.087357 -16.604553 -37.087357 -37.08734z" fill-rule="evenodd"/><path fill="#523e8e" d="m0 534.55927l0 0c0 -20.482788 16.604574 -37.08737 37.087357 -37.08737l645.8253 0c9.836182 0 19.26947 3.9073792 26.224731 10.86261c6.9552 6.9552307 10.86261 16.38858 10.86261 26.224762l0 148.34497c0 20.482727 -16.604553 37.08734 -37.08734 37.08734l-645.8253 0c-20.482782 0 -37.087357 -16.604614 -37.087357 -37.08734z" fill-rule="evenodd"/><path fill="#ffffff" d="m525.7743 72.11063l0 0c0 -10.811081 8.764099 -19.575191 19.575195 -19.575191l78.2984 0l0 0c5.1916504 0 10.170715 2.062378 13.841797 5.7334404c3.6710205 3.6710625 5.7333984 8.650085 5.7333984 13.841751l0 78.29843c0 10.811081 -8.764099 19.575195 -19.575195 19.575195l-78.2984 0c-10.811096 0 -19.575195 -8.764114 -19.575195 -19.575195z" fill-rule="evenodd"/><path fill="#ffffff" d="m525.7743 320.84686l0 0c0 -10.811096 8.764099 -19.575195 19.575195 -19.575195l78.2984 0l0 0c5.1916504 0 10.170715 2.062378 13.841797 5.733429c3.6710205 3.671051 5.7333984 8.650085 5.7333984 13.841766l0 78.2984c0 10.811096 -8.764099 19.575195 -19.575195 19.575195l-78.2984 0c-10.811096 0 -19.575195 -8.764099 -19.575195 -19.575195z" fill-rule="evenodd"/><path fill="#ffffff" d="m525.7743 569.5791l0 0c0 -10.811035 8.764099 -19.575134 19.575195 -19.575134l78.2984 0l0 0c5.1916504 0 10.170715 2.062378 13.841797 5.7333984c3.6710205 3.6710815 5.7333984 8.650085 5.7333984 13.841736l0 78.29846c0 10.811096 -8.764099 19.575195 -19.575195 19.575195l-78.2984 0c-10.811096 0 -19.575195 -8.764099 -19.575195 -19.575195z" fill-rule="evenodd"/></g></svg>